<svg width="64" height="64" viewBox="0 0 64 64" fill="none" xmlns="http://www.w3.org/2000/svg">
<g clip-path="url(#clip0_851_5848)">
<path d="M15.8164 18.4961L19.2164 29.8268M34.1684 44.7841L45.5044 48.1841" stroke="white" stroke-width="2.5" stroke-linecap="round" stroke-linejoin="round"/>
<path d="M31.1543 32.8451L46.5116 17.4878" stroke="white" stroke-width="2.5" stroke-linecap="round" stroke-linejoin="round"/>
<path d="M10.667 14.6665C10.667 15.1918 10.7705 15.7119 10.9715 16.1972C11.1725 16.6825 11.4671 17.1235 11.8386 17.4949C12.21 17.8664 12.651 18.161 13.1363 18.362C13.6216 18.563 14.1417 18.6665 14.667 18.6665C15.1923 18.6665 15.7124 18.563 16.1977 18.362C16.683 18.161 17.124 17.8664 17.4954 17.4949C17.8669 17.1235 18.1615 16.6825 18.3625 16.1972C18.5635 15.7119 18.667 15.1918 18.667 14.6665C18.667 14.1412 18.5635 13.6211 18.3625 13.1358C18.1615 12.6505 17.8669 12.2095 17.4954 11.8381C17.124 11.4666 16.683 11.172 16.1977 10.971C15.7124 10.77 15.1923 10.6665 14.667 10.6665C14.1417 10.6665 13.6216 10.77 13.1363 10.971C12.651 11.172 12.21 11.4666 11.8386 11.8381C11.4671 12.2095 11.1725 12.6505 10.9715 13.1358C10.7705 13.6211 10.667 14.1412 10.667 14.6665Z" stroke="white" stroke-width="2.5" stroke-linecap="round" stroke-linejoin="round"/>
<path d="M45.333 14.6665C45.333 15.7274 45.7544 16.7448 46.5046 17.4949C47.2547 18.2451 48.2721 18.6665 49.333 18.6665C50.3939 18.6665 51.4113 18.2451 52.1614 17.4949C52.9116 16.7448 53.333 15.7274 53.333 14.6665C53.333 13.6056 52.9116 12.5882 52.1614 11.8381C51.4113 11.0879 50.3939 10.6665 49.333 10.6665C48.2721 10.6665 47.2547 11.0879 46.5046 11.8381C45.7544 12.5882 45.333 13.6056 45.333 14.6665Z" stroke="white" stroke-width="2.5" stroke-linecap="round" stroke-linejoin="round"/>
<path d="M45.333 49.3335C45.333 50.3944 45.7544 51.4118 46.5046 52.1619C47.2547 52.9121 48.2721 53.3335 49.333 53.3335C50.3939 53.3335 51.4113 52.9121 52.1614 52.1619C52.9116 51.4118 53.333 50.3944 53.333 49.3335C53.333 48.2726 52.9116 47.2552 52.1614 46.5051C51.4113 45.7549 50.3939 45.3335 49.333 45.3335C48.2721 45.3335 47.2547 45.7549 46.5046 46.5051C45.7544 47.2552 45.333 48.2726 45.333 49.3335Z" stroke="white" stroke-width="2.5" stroke-linecap="round" stroke-linejoin="round"/>
<path d="M10.667 41.3335C10.667 44.5161 11.9313 47.5683 14.1817 49.8188C16.4321 52.0692 19.4844 53.3335 22.667 53.3335C25.8496 53.3335 28.9018 52.0692 31.1523 49.8188C33.4027 47.5683 34.667 44.5161 34.667 41.3335C34.667 38.1509 33.4027 35.0987 31.1523 32.8482C28.9018 30.5978 25.8496 29.3335 22.667 29.3335C19.4844 29.3335 16.4321 30.5978 14.1817 32.8482C11.9313 35.0987 10.667 38.1509 10.667 41.3335Z" fill="url(#paint0_linear_851_5848)" stroke="white" stroke-width="2.5" stroke-linecap="round" stroke-linejoin="round"/>
</g>
<defs>
<linearGradient id="paint0_linear_851_5848" x1="-1.72963" y1="36.7135" x2="13.0305" y2="66.6636" gradientUnits="userSpaceOnUse">
<stop stop-color="#0056FF"/>
<stop offset="0.999344" stop-color="#9FFFD5"/>
</linearGradient>
<clipPath id="clip0_851_5848">
<rect width="64" height="64" fill="white"/>
</clipPath>
</defs>
</svg>
