<svg width="64" height="64" viewBox="0 0 64 64" fill="none" xmlns="http://www.w3.org/2000/svg">
<g clip-path="url(#clip0_851_5826)">
<path d="M44.5 14L31.5 22L32.5 35L45 27.5L44.5 14Z" fill="url(#paint0_linear_851_5826)"/>
<path d="M59 37L46 45L47 58L59.5 50.5L59 37Z" fill="url(#paint1_linear_851_5826)"/>
<path d="M32 37L19 45L20 58L32.5 50.5L32 37Z" fill="url(#paint2_linear_851_5826)"/>
<path d="M18.6663 44L5.33301 36L18.6663 28L31.9997 36V50.6667L18.6663 58.6667V44Z" stroke="white" stroke-width="2.5" stroke-linecap="round" stroke-linejoin="round"/>
<path d="M5.33301 36V50.6667L18.6663 58.6667" stroke="white" stroke-width="2.5" stroke-linecap="round" stroke-linejoin="round"/>
<path d="M18.667 44.12L32.0003 36.04" stroke="white" stroke-width="2.5" stroke-linecap="round" stroke-linejoin="round"/>
<path d="M45.3333 44L32 36L45.3333 28L58.6667 36V50.6667L45.3333 58.6667V44Z" stroke="white" stroke-width="2.5" stroke-linecap="round" stroke-linejoin="round"/>
<path d="M32 50.6667L45.3333 58.6667" stroke="white" stroke-width="2.5" stroke-linecap="round" stroke-linejoin="round"/>
<path d="M45.333 44L58.6663 36" stroke="white" stroke-width="2.5" stroke-linecap="round" stroke-linejoin="round"/>
<path d="M32.0003 36.0002V21.3335L18.667 13.3335L32.0003 5.3335L45.3337 13.3335V28.0002" stroke="white" stroke-width="2.5" stroke-linecap="round" stroke-linejoin="round"/>
<path d="M18.667 13.4136V27.9602" stroke="white" stroke-width="2.5" stroke-linecap="round" stroke-linejoin="round"/>
<path d="M32 21.3333L45.3333 13.3333" stroke="white" stroke-width="2.5" stroke-linecap="round" stroke-linejoin="round"/>
</g>
<defs>
<linearGradient id="paint0_linear_851_5826" x1="24.5269" y1="20.4575" x2="40.2538" y2="40.9723" gradientUnits="userSpaceOnUse">
<stop stop-color="#0056FF"/>
<stop offset="0.999344" stop-color="#9FFFD5"/>
</linearGradient>
<linearGradient id="paint1_linear_851_5826" x1="39.0269" y1="43.4575" x2="54.7538" y2="63.9723" gradientUnits="userSpaceOnUse">
<stop stop-color="#0056FF"/>
<stop offset="0.999344" stop-color="#9FFFD5"/>
</linearGradient>
<linearGradient id="paint2_linear_851_5826" x1="12.0269" y1="43.4575" x2="27.7538" y2="63.9723" gradientUnits="userSpaceOnUse">
<stop stop-color="#0056FF"/>
<stop offset="0.999344" stop-color="#9FFFD5"/>
</linearGradient>
<clipPath id="clip0_851_5826">
<rect width="64" height="64" fill="white"/>
</clipPath>
</defs>
</svg>
