<svg width="58" height="56" viewBox="0 0 58 56" fill="none" xmlns="http://www.w3.org/2000/svg">
<path d="M3.33117 2C2.31385 2 1.5 2.81481 1.5 3.83333C1.5 4.85185 2.31385 5.66667 3.33117 5.66667C3.33577 5.66667 3.34037 5.66665 3.34497 5.66662C4.35584 5.65929 5.16234 4.84724 5.16234 3.83333C5.16234 2.81481 4.34848 2 3.33117 2Z" fill="white"/>
<path d="M4.58117 3.83333C4.58117 3.14298 4.02152 2.58333 3.33117 2.58333C2.64081 2.58333 2.08117 3.14298 2.08117 3.83333H4.58117ZM47.6161 54.8839C48.1043 55.372 48.8957 55.372 49.3839 54.8839L57.3388 46.9289C57.827 46.4408 57.827 45.6493 57.3388 45.1612C56.8507 44.673 56.0592 44.673 55.5711 45.1612L48.5 52.2322L41.4289 45.1612C40.9408 44.673 40.1493 44.673 39.6612 45.1612C39.173 45.6493 39.173 46.4408 39.6612 46.9289L47.6161 54.8839ZM2.75 3.83333C2.75 3.50378 3.0056 3.25 3.33117 3.25V0.75C1.62211 0.75 0.25 2.12585 0.25 3.83333H2.75ZM3.33117 3.25C3.65674 3.25 3.91234 3.50378 3.91234 3.83333H6.41234C6.41234 2.12585 5.04023 0.75 3.33117 0.75V3.25ZM3.91234 3.83333C3.91234 4.16147 3.65892 4.41431 3.33591 4.41665L3.35403 6.91658C5.05275 6.90427 6.41234 5.53301 6.41234 3.83333H3.91234ZM3.33589 4.41665C3.33433 4.41666 3.33275 4.41667 3.33117 4.41667V6.91667C3.33879 6.91667 3.34642 6.91664 3.35405 6.91658L3.33589 4.41665ZM3.33117 4.41667C3.0056 4.41667 2.75 4.16289 2.75 3.83333H0.25C0.25 5.54082 1.62211 6.91667 3.33117 6.91667V4.41667ZM2.08117 3.83333V4.91667H4.58117V3.83333H2.08117ZM23.3312 26.1667H28.5V23.6667H23.3312V26.1667ZM47.25 44.9167V54H49.75V44.9167H47.25ZM28.5 26.1667C38.8553 26.1667 47.25 34.5613 47.25 44.9167H49.75C49.75 33.1806 40.236 23.6667 28.5 23.6667V26.1667ZM2.08117 4.91667C2.08117 5.18311 2.08608 5.44848 2.09582 5.71267L4.59412 5.62057C4.58551 5.38706 4.58117 5.1524 4.58117 4.91667H2.08117ZM2.09582 5.71267C2.51488 17.0804 11.8616 26.1667 23.3312 26.1667V23.6667C13.2115 23.6667 4.96382 15.6493 4.59412 5.62057L2.09582 5.71267Z" fill="white"/>
</svg>
